<?xml version="1.0" encoding="utf-8"?>
<!-- Sex Toy icon by Arthur Shlain from Usefulicons.com -->
<svg xmlns="http://www.w3.org/2000/svg" xmlns:xlink="http://www.w3.org/1999/xlink" xml:space="preserve" version="1.1" x="0px" y="0px" viewBox="0 0 100 100" width="400px" height="400px"><g style="fill: #ff2ef8"><path d="M75,50C75,29.526,55,5,50,5S25,29.526,25,50C25,61.194,32.358,70.668,42.5,73.854L42.5,87.5L30,87.5L27.5,95L72.5,95L70,87.5L57.5,87.5L57.5,73.854C67.642,70.668,75,61.194,75,50ZM40.637,25.952C44.11,20.194,47.702,15.961,50,13.744C52.298,15.962,55.89,20.195,59.363,25.952C64.61,34.65,67.5,43.191,67.5,50C67.5,59.65,59.65,67.5,50,67.5S32.5,59.65,32.5,50C32.5,43.191,35.39,34.65,40.637,25.952ZM50,75C50.844,75,51.678,74.957,52.5,74.875L52.5,87.5L47.5,87.5L47.5,74.875C48.322,74.957,49.156,75,50,75Z" stroke="none"></path></g></svg>